<svg width="85" height="86" viewBox="0 0 85 86" fill="none" xmlns="http://www.w3.org/2000/svg">
<path d="M40.7759 58.2019C39.9866 58.2019 39.1974 57.8991 38.5942 57.2936L21.7262 40.36C20.5223 39.1514 20.5223 37.1908 21.7262 35.9822C22.9302 34.7735 24.8831 34.7735 26.0871 35.9822L40.7759 50.7255L79.7222 11.6277C80.9262 10.4166 82.8791 10.4166 84.0856 11.6277C85.2895 12.8364 85.2895 14.7969 84.0856 16.0056L42.9576 57.2936C42.3543 57.8966 41.5651 58.2019 40.7759 58.2019Z" fill="white" fill-opacity="0.3"/>
<path d="M80.1829 57.3953C79.8813 57.3953 79.5771 57.3498 79.2755 57.2565C77.6468 56.7544 76.7319 55.0209 77.2346 53.3858C78.4662 49.3638 78.989 45.1752 78.7879 40.9285C78.7075 39.2203 80.022 37.7694 81.7237 37.6887C83.4027 37.6433 84.8705 38.9251 84.951 40.6358C85.1872 45.5965 84.5739 50.4992 83.1312 55.2076C82.724 56.5399 81.5025 57.3953 80.1829 57.3953Z" fill="white" fill-opacity="0.3"/>
<path d="M3.12744 47.6401C1.49368 47.6401 0.12635 46.3482 0.0484325 44.6904C-1.06252 21.1914 17.0747 1.16434 40.4827 0.0465433C47.8724 -0.299142 55.2469 1.28546 61.797 4.64391C63.3177 5.42359 63.9184 7.28828 63.1443 8.8098C62.3676 10.3338 60.5127 10.9369 58.9945 10.1597C53.397 7.2908 47.0907 5.94591 40.7768 6.23356C31.0823 6.69531 22.1494 10.9192 15.6219 18.1282C9.09444 25.3371 5.75403 34.663 6.21399 44.3952C6.29442 46.1035 4.98239 47.5543 3.27825 47.6351C3.22798 47.6376 3.17771 47.6401 3.12744 47.6401Z" fill="white" fill-opacity="0.3"/>
<path d="M37.3857 85.0012C37.2524 85.0012 37.1192 84.9936 36.986 84.9759C21.978 83.0204 9.0462 73.0763 3.23504 59.0218C2.58154 57.4422 3.32553 55.6305 4.90148 54.9745C6.4724 54.3159 8.27959 55.0678 8.93309 56.6474C13.9022 68.6631 24.954 77.1639 37.7778 78.8318C39.4693 79.0513 40.6607 80.6057 40.4421 82.3013C40.2385 83.8632 38.9113 85.0012 37.3857 85.0012Z" fill="white" fill-opacity="0.3"/>
<path d="M51.0598 84.3905C49.6422 84.3905 48.3679 83.4065 48.0487 81.9606C47.6817 80.2902 48.7323 78.64 50.3963 78.2691C58.8516 76.3918 66.382 71.5017 71.6025 64.4997C72.623 63.1296 74.5558 62.852 75.9206 63.8765C77.2855 64.9009 77.5619 66.8413 76.5415 68.2114C70.4362 76.4019 61.624 82.1221 51.7259 84.3199C51.5022 84.3653 51.2785 84.3905 51.0598 84.3905Z" fill="white" fill-opacity="0.3"/>
</svg>
