<svg width="63" height="63" viewBox="0 0 63 63" fill="none" xmlns="http://www.w3.org/2000/svg">
<path d="M30.2197 43.1375C29.6348 43.1375 29.0498 42.913 28.6027 42.4642L16.1009 29.9137C15.2086 29.018 15.2086 27.5649 16.1009 26.6691C16.9932 25.7733 18.4407 25.7733 19.333 26.6691L30.2197 37.5963L59.0851 8.61856C59.9775 7.7209 61.4249 7.7209 62.3191 8.61856C63.2114 9.51435 63.2114 10.9674 62.3191 11.8632L31.8367 42.4642C31.3896 42.9112 30.8047 43.1375 30.2197 43.1375Z" fill="#6BB76E"/>
<path d="M59.428 42.5408C59.2045 42.5408 58.979 42.5071 58.7555 42.4379C57.5483 42.0658 56.8703 40.781 57.2428 39.5692C58.1556 36.5882 58.5431 33.4838 58.3941 30.3363C58.3345 29.0702 59.3088 27.9949 60.57 27.9351C61.8144 27.9014 62.9023 28.8514 62.9619 30.1194C63.137 33.7961 62.6825 37.4297 61.6132 40.9194C61.3114 41.9068 60.406 42.5408 59.428 42.5408Z" fill="#FD9400"/>
<path d="M2.31793 35.3089C1.10706 35.3089 0.0936457 34.3514 0.0358962 33.1227C-0.7875 15.7062 12.6551 0.862964 30.0042 0.034496C35.4811 -0.221712 40.9468 0.952731 45.8015 3.44188C46.9285 4.01975 47.3737 5.40177 46.8 6.52946C46.2243 7.65902 44.8495 8.10598 43.7243 7.52998C39.5757 5.40364 34.9017 4.40686 30.2221 4.62006C23.037 4.96229 16.4163 8.09289 11.5783 13.4359C6.74043 18.7788 4.26465 25.6908 4.60556 32.9039C4.66517 34.17 3.69274 35.2453 2.42971 35.3052C2.39245 35.3071 2.35519 35.3089 2.31793 35.3089Z" fill="#004364"/>
<path d="M27.7113 63.0002C27.6126 63.0002 27.5138 62.9945 27.4151 62.9815C16.2918 61.5321 6.70726 54.1619 2.40026 43.7453C1.91591 42.5746 2.46732 41.2318 3.63535 40.7456C4.79966 40.2575 6.13907 40.8148 6.62343 41.9855C10.3064 50.8911 18.4975 57.1915 28.0019 58.4277C29.2556 58.5904 30.1387 59.7424 29.9766 60.9991C29.8257 62.1567 28.8421 63.0002 27.7113 63.0002Z" fill="#138F8E"/>
<path d="M37.8426 62.5475C36.7919 62.5475 35.8474 61.8182 35.6108 60.7466C35.3388 59.5086 36.1175 58.2855 37.3508 58.0106C43.6175 56.6192 49.1987 52.9949 53.0679 47.8053C53.8243 46.7898 55.2568 46.5841 56.2684 47.3434C57.2799 48.1026 57.4848 49.5408 56.7285 50.5563C52.2036 56.6267 45.6723 60.8663 38.3362 62.4952C38.1704 62.5288 38.0046 62.5475 37.8426 62.5475Z" fill="#ED5116"/>
</svg>
